<svg version="1.1" id="Layer_1" xmlns="http://www.w3.org/2000/svg" xmlns:xlink="http://www.w3.org/1999/xlink" x="0px" y="0px"
	 width="100%" viewBox="0 0 512 512" enable-background="new 0 0 512 512" xml:space="preserve">
<path fill="#000000" opacity="1.000000" stroke="none" 
	d="
M256.000000,513.000000 
	C170.687363,513.000000 85.874725,513.000000 1.031044,513.000000 
	C1.031044,342.395660 1.031044,171.791336 1.031044,1.093498 
	C171.562653,1.093498 342.125397,1.093498 512.844055,1.093498 
	C512.844055,171.666550 512.844055,342.333252 512.844055,513.000000 
	C427.457977,513.000000 341.978973,513.000000 256.000000,513.000000 
M111.201118,180.069153 
	C108.383865,175.385452 105.808617,170.526901 102.619019,166.112228 
	C101.491982,164.552307 98.850266,163.208542 96.924843,163.240845 
	C79.552673,163.532410 60.829166,179.814774 57.551018,197.398636 
	C68.232056,200.803528 78.952332,204.220917 90.288803,207.969513 
	C95.183609,209.473526 99.995461,211.392670 104.991325,212.390945 
	C114.039734,214.199036 122.840340,213.322220 130.228943,209.051941 
	C123.800804,199.384094 117.606262,190.067596 111.201118,180.069153 
M77.465225,244.541199 
	C65.663513,241.242813 53.861801,237.944427 41.606083,234.519165 
	C39.404903,241.557755 36.813087,247.912079 35.492943,254.520432 
	C33.517834,264.407410 32.291748,274.456329 31.139421,284.481445 
	C30.975147,285.910675 32.829021,288.787842 34.057819,288.975861 
	C48.669212,291.211853 63.339233,293.064636 78.716995,295.360504 
	C123.559196,301.386810 168.401398,307.413086 214.357742,313.589111 
	C208.787689,304.132385 202.015396,297.771271 194.088806,293.298462 
	C178.339462,284.411346 162.114624,276.357452 145.984070,268.160431 
	C140.317337,265.280792 139.151260,263.746735 140.296158,256.701782 
	C143.099792,252.543945 146.869049,251.878998 151.206055,253.877258 
	C161.780533,258.749420 172.384109,263.567688 182.827545,268.709137 
	C185.731201,270.138672 187.298508,269.966888 189.506027,267.492554 
	C212.470749,241.752457 235.578537,216.139999 258.637360,190.483765 
	C261.597961,187.189682 264.505859,183.848206 267.734253,180.193527 
	C260.775604,175.593353 254.278809,171.298492 247.176590,166.603394 
	C245.571686,168.436386 244.152130,170.301102 242.490829,171.917343 
	C226.425842,187.546371 209.376099,201.887268 189.024414,211.741135 
	C176.167313,217.966278 162.866653,221.475586 148.411041,218.083557 
	C146.671951,217.675476 144.259064,218.796219 142.544861,219.841812 
	C131.170258,226.779938 118.869438,229.894501 105.728836,227.856689 
	C98.393593,226.719147 91.284912,224.120621 83.407074,221.831573 
	C74.910980,219.028076 66.423599,216.197800 57.916214,213.428986 
	C50.152897,210.902344 50.138416,210.930176 47.692741,218.812088 
	C47.554482,219.257675 47.603474,219.761353 47.547180,220.464478 
	C59.075264,223.595337 70.559883,226.714401 82.750900,230.104919 
	C94.709595,233.936951 106.687965,237.709000 118.619362,241.624237 
	C125.412086,243.853226 126.372902,245.407364 125.610573,253.061066 
	C122.981857,257.268768 119.369461,257.786011 114.869537,256.356445 
	C102.626701,252.467041 90.319588,248.779999 77.465225,244.541199 
M69.378151,357.869751 
	C86.709167,359.926208 104.029335,363.648834 121.373001,363.761658 
	C215.519318,364.374115 309.672302,364.293274 403.820587,363.893921 
	C416.825165,363.838806 430.001312,361.531555 442.763733,358.739014 
	C456.340240,355.768341 468.866791,349.724426 478.829254,339.514038 
	C481.047913,337.240143 482.774048,334.485718 485.327087,331.174072 
	C482.831604,331.174072 481.685669,331.005585 480.604462,331.198944 
	C459.504730,334.972931 438.425446,338.862640 417.311401,342.553986 
	C410.514069,343.742371 408.304565,342.260345 406.001495,335.244293 
	C407.578857,328.868744 409.126404,328.019104 418.744751,327.063416 
	C442.804199,324.672791 466.428589,320.018585 489.500061,312.762207 
	C491.497253,312.134033 493.609131,310.417938 494.703949,308.620239 
	C499.941589,300.019928 498.436340,285.046844 491.688263,276.987152 
	C490.247955,277.543854 488.735016,278.180939 487.187622,278.718842 
	C466.321350,285.972290 445.724426,294.185577 424.497833,300.161591 
	C405.939270,305.386444 387.162048,306.406525 375.148895,285.553345 
	C353.029633,292.911102 335.495483,306.056976 322.119507,325.310822 
	C341.818024,327.166931 361.219391,328.241852 380.628845,329.141602 
	C387.271423,329.449585 388.979034,330.483795 390.866547,337.518860 
	C389.758087,342.965210 386.063843,344.741638 380.962677,344.424652 
	C360.538147,343.155426 340.061432,342.418671 319.703766,340.452393 
	C288.413727,337.430206 257.179535,333.774414 225.969986,329.988739 
	C190.639359,325.703156 155.362488,320.974640 120.061501,316.444489 
	C106.052460,314.646698 92.041412,312.864594 77.299850,310.736023 
	C62.044167,308.567719 46.788483,306.399445 31.528303,304.230530 
	C29.093269,310.103943 26.871670,315.463501 24.649298,320.822723 
	C22.443001,326.143188 20.235914,331.463348 18.069029,336.687531 
	C29.027700,344.824280 52.860794,354.479492 69.378151,357.869751 
M239.165802,316.299438 
	C260.336578,318.736450 281.503784,321.206635 302.688843,323.512421 
	C303.742554,323.627106 305.496582,322.597717 306.004883,321.621979 
	C311.656830,310.772034 319.828217,302.058319 329.115753,294.361511 
	C344.582275,281.544037 361.456940,271.651520 381.942841,269.159546 
	C389.843109,268.198486 397.690948,266.632111 405.466553,264.907990 
	C408.513123,264.232483 411.296143,262.368500 415.308655,260.540283 
	C412.537140,258.919525 411.079803,257.891327 409.484955,257.165009 
	C402.528961,253.997162 395.493866,251.001343 388.560822,247.785049 
	C378.450012,243.094559 378.476776,243.036667 370.242706,250.805862 
	C369.879242,251.148804 369.538849,251.519150 369.154449,251.836472 
	C365.565125,254.799469 361.318115,254.749130 358.385254,251.718842 
	C355.412323,248.647141 355.365021,244.438370 358.656311,240.993881 
	C360.233215,239.343628 362.403809,238.260666 365.098389,236.362106 
	C359.669098,233.541687 356.067383,231.670654 351.853088,229.481415 
	C349.758484,231.831665 347.866119,234.162018 345.758057,236.277435 
	C341.366272,240.684586 336.972595,241.203415 333.560974,237.887344 
	C330.019775,234.445328 330.472656,230.221329 334.860809,225.693741 
	C335.887909,224.634018 336.897430,223.557297 338.187622,222.202072 
	C334.401520,220.094635 330.833313,218.108475 326.328613,215.601044 
	C323.894958,218.404831 321.708801,221.395065 319.045746,223.872757 
	C315.680267,227.003967 311.200867,226.708694 308.329529,223.642380 
	C305.558960,220.683655 305.531342,216.626724 308.387482,213.239166 
	C309.826904,211.531921 311.455109,209.983810 313.239990,208.109650 
	C309.405914,205.856171 306.002869,203.856003 301.689819,201.320984 
	C299.170868,204.185257 296.850220,207.275208 294.068573,209.871201 
	C290.708282,213.007202 286.228058,212.716019 283.351288,209.652649 
	C280.563324,206.683868 280.521332,202.656189 283.406372,199.255814 
	C285.064117,197.301941 286.934296,195.528320 288.864197,193.511200 
	C285.872345,191.664612 283.375977,190.123840 280.798798,188.533203 
	C253.643036,218.758072 226.849716,248.579529 199.906281,278.568054 
	C201.972443,280.048615 203.753586,281.266632 205.472809,282.566528 
	C215.244049,289.954315 224.720001,297.818420 229.076141,309.666779 
	C230.905182,314.641602 233.397476,316.564362 239.165802,316.299438 
M423.817963,272.325165 
	C415.001740,279.730286 403.852142,281.020721 392.013123,283.768188 
	C394.373444,285.018677 395.623627,286.231506 396.909180,286.270233 
	C403.800049,286.477875 411.147369,287.948456 417.512238,286.116821 
	C436.459839,280.663971 455.024048,273.878052 473.723663,267.570496 
	C474.035187,267.465393 474.165649,266.823517 474.917297,265.454956 
	C459.527985,263.467438 444.659027,261.547119 431.285828,259.819977 
	C428.402740,264.828033 426.383942,268.334747 423.817963,272.325165 
M205.060150,152.520874 
	C204.164688,154.113922 203.200241,155.672531 202.384964,157.305588 
	C197.108948,167.873871 198.042969,175.077362 206.267105,183.786438 
	C215.715073,175.526047 225.188263,167.243591 235.114120,158.565384 
	C227.674118,153.776398 220.606003,150.128784 212.542160,149.351883 
	C210.290253,149.134933 207.838577,150.991333 205.060150,152.520874 
z"/>
<path fill="#FDE271" opacity="1.000000" stroke="none" 
	d="
M238.725464,316.242828 
	C233.397476,316.564362 230.905182,314.641602 229.076141,309.666779 
	C224.720001,297.818420 215.244049,289.954315 205.472809,282.566528 
	C203.753586,281.266632 201.972443,280.048615 199.906281,278.568054 
	C226.849716,248.579529 253.643036,218.758072 280.798798,188.533203 
	C283.375977,190.123840 285.872345,191.664612 288.864197,193.511200 
	C286.934296,195.528320 285.064117,197.301941 283.406372,199.255814 
	C280.521332,202.656189 280.563324,206.683868 283.351288,209.652649 
	C286.228058,212.716019 290.708282,213.007202 294.068573,209.871201 
	C296.850220,207.275208 299.170868,204.185257 301.689819,201.320984 
	C306.002869,203.856003 309.405914,205.856171 313.239990,208.109650 
	C311.455109,209.983810 309.826904,211.531921 308.387482,213.239166 
	C305.531342,216.626724 305.558960,220.683655 308.329529,223.642380 
	C311.200867,226.708694 315.680267,227.003967 319.045746,223.872757 
	C321.708801,221.395065 323.894958,218.404831 326.328613,215.601044 
	C330.833313,218.108475 334.401520,220.094635 338.187622,222.202072 
	C336.897430,223.557297 335.887909,224.634018 334.860809,225.693741 
	C330.472656,230.221329 330.019775,234.445328 333.560974,237.887344 
	C336.972595,241.203415 341.366272,240.684586 345.758057,236.277435 
	C347.866119,234.162018 349.758484,231.831665 351.853088,229.481415 
	C356.067383,231.670654 359.669098,233.541687 365.098389,236.362106 
	C362.403809,238.260666 360.233215,239.343628 358.656311,240.993881 
	C355.365021,244.438370 355.412323,248.647141 358.385254,251.718842 
	C361.318115,254.749130 365.565125,254.799469 369.154449,251.836472 
	C369.538849,251.519150 369.879242,251.148804 370.242706,250.805862 
	C378.476776,243.036667 378.450012,243.094559 388.560822,247.785049 
	C395.493866,251.001343 402.528961,253.997162 409.484955,257.165009 
	C411.079803,257.891327 412.537140,258.919525 415.308655,260.540283 
	C411.296143,262.368500 408.513123,264.232483 405.466553,264.907990 
	C397.690948,266.632111 389.843109,268.198486 381.942841,269.159546 
	C361.456940,271.651520 344.582275,281.544037 329.115753,294.361511 
	C319.828217,302.058319 311.656830,310.772034 306.004883,321.621979 
	C305.496582,322.597717 303.742554,323.627106 302.688843,323.512421 
	C281.503784,321.206635 260.336578,318.736450 238.725464,316.242828 
z"/>
<path fill="#CBE5F5" opacity="1.000000" stroke="none" 
	d="
M78.031281,311.075378 
	C92.041412,312.864594 106.052460,314.646698 120.061501,316.444489 
	C155.362488,320.974640 190.639359,325.703156 225.969986,329.988739 
	C257.179535,333.774414 288.413727,337.430206 319.703766,340.452393 
	C340.061432,342.418671 360.538147,343.155426 380.962677,344.424652 
	C386.063843,344.741638 389.758087,342.965210 391.396729,337.175598 
	C396.574615,336.549042 401.222290,336.265747 405.869965,335.982452 
	C408.304565,342.260345 410.514069,343.742371 417.311401,342.553986 
	C438.425446,338.862640 459.504730,334.972931 480.604462,331.198944 
	C481.685669,331.005585 482.831604,331.174072 485.327087,331.174072 
	C482.774048,334.485718 481.047913,337.240143 478.829254,339.514038 
	C468.866791,349.724426 456.340240,355.768341 442.763733,358.739014 
	C430.001312,361.531555 416.825165,363.838806 403.820587,363.893921 
	C309.672302,364.293274 215.519318,364.374115 121.373001,363.761658 
	C104.029335,363.648834 86.709167,359.926208 69.275146,357.236023 
	C69.949585,353.071136 70.812286,349.556244 71.488785,346.005890 
	C73.706070,334.369324 75.855675,322.719879 78.031281,311.075378 
z"/>
<path fill="#4593BA" opacity="1.000000" stroke="none" 
	d="
M126.077896,252.446136 
	C126.372902,245.407364 125.412086,243.853226 118.619362,241.624237 
	C106.687965,237.709000 94.709595,233.936951 82.442108,229.611816 
	C82.780258,226.805969 83.427193,224.493210 84.074127,222.180466 
	C91.284912,224.120621 98.393593,226.719147 105.728836,227.856689 
	C118.869438,229.894501 131.170258,226.779938 142.544861,219.841812 
	C144.259064,218.796219 146.671951,217.675476 148.411041,218.083557 
	C162.866653,221.475586 176.167313,217.966278 189.024414,211.741135 
	C209.376099,201.887268 226.425842,187.546371 242.490829,171.917343 
	C244.152130,170.301102 245.571686,168.436386 247.176590,166.603394 
	C254.278809,171.298492 260.775604,175.593353 267.734253,180.193527 
	C264.505859,183.848206 261.597961,187.189682 258.637360,190.483765 
	C235.578537,216.139999 212.470749,241.752457 189.506027,267.492554 
	C187.298508,269.966888 185.731201,270.138672 182.827545,268.709137 
	C172.384109,263.567688 161.780533,258.749420 151.206055,253.877258 
	C146.869049,251.878998 143.099792,252.543945 139.700424,256.903503 
	C134.762421,255.552216 130.420151,253.999176 126.077896,252.446136 
M252.746323,185.258865 
	C249.343597,180.748413 245.002396,179.647491 241.302353,182.356689 
	C237.961639,184.802811 237.253464,189.702713 239.924637,192.958786 
	C242.124847,195.640793 244.950699,196.780472 248.339722,195.339584 
	C252.477844,193.580215 253.916306,190.382965 252.746323,185.258865 
z"/>
<path fill="#4594BA" opacity="1.000000" stroke="none" 
	d="
M405.935730,335.613373 
	C401.222290,336.265747 396.574615,336.549042 391.521362,336.818787 
	C388.979034,330.483795 387.271423,329.449585 380.628845,329.141602 
	C361.219391,328.241852 341.818024,327.166931 322.119507,325.310822 
	C335.495483,306.056976 353.029633,292.911102 375.148895,285.553345 
	C387.162048,306.406525 405.939270,305.386444 424.497833,300.161591 
	C445.724426,294.185577 466.321350,285.972290 487.187622,278.718842 
	C488.735016,278.180939 490.247955,277.543854 491.688263,276.987152 
	C498.436340,285.046844 499.941589,300.019928 494.703949,308.620239 
	C493.609131,310.417938 491.497253,312.134033 489.500061,312.762207 
	C466.428589,320.018585 442.804199,324.672791 418.744751,327.063416 
	C409.126404,328.019104 407.578857,328.868744 405.935730,335.613373 
z"/>
<path fill="#F96471" opacity="1.000000" stroke="none" 
	d="
M125.844231,252.753601 
	C130.420151,253.999176 134.762421,255.552216 139.468384,257.196106 
	C139.151260,263.746735 140.317337,265.280792 145.984070,268.160431 
	C162.114624,276.357452 178.339462,284.411346 194.088806,293.298462 
	C202.015396,297.771271 208.787689,304.132385 214.357742,313.589111 
	C168.401398,307.413086 123.559196,301.386810 78.296677,294.785767 
	C77.250298,289.651855 75.998070,285.075806 76.119987,280.536682 
	C76.438263,268.686768 77.358040,256.852966 78.037949,245.012756 
	C90.319588,248.779999 102.626701,252.467041 114.869537,256.356445 
	C119.369461,257.786011 122.981857,257.268768 125.844231,252.753601 
z"/>
<path fill="#E8394E" opacity="1.000000" stroke="none" 
	d="
M77.751587,244.776978 
	C77.358040,256.852966 76.438263,268.686768 76.119987,280.536682 
	C75.998070,285.075806 77.250298,289.651855 77.935120,294.614502 
	C63.339233,293.064636 48.669212,291.211853 34.057819,288.975861 
	C32.829021,288.787842 30.975147,285.910675 31.139421,284.481445 
	C32.291748,274.456329 33.517834,264.407410 35.492943,254.520432 
	C36.813087,247.912079 39.404903,241.557755 41.606083,234.519165 
	C53.861801,237.944427 65.663513,241.242813 77.751587,244.776978 
z"/>
<path fill="#9CC9DE" opacity="1.000000" stroke="none" 
	d="
M77.665565,310.905701 
	C75.855675,322.719879 73.706070,334.369324 71.488785,346.005890 
	C70.812286,349.556244 69.949585,353.071136 68.992203,356.977661 
	C52.860794,354.479492 29.027700,344.824280 18.069029,336.687531 
	C20.235914,331.463348 22.443001,326.143188 24.649298,320.822723 
	C26.871670,315.463501 29.093269,310.103943 31.528303,304.230530 
	C46.788483,306.399445 62.044167,308.567719 77.665565,310.905701 
z"/>
<path fill="#E8394E" opacity="1.000000" stroke="none" 
	d="
M89.672592,207.638306 
	C78.952332,204.220917 68.232056,200.803528 57.551018,197.398636 
	C60.829166,179.814774 79.552673,163.532410 96.924843,163.240845 
	C98.850266,163.208542 101.491982,164.552307 102.619019,166.112228 
	C105.808617,170.526901 108.383865,175.385452 110.968948,180.576996 
	C106.945038,184.398849 102.526184,187.231186 99.518219,191.147247 
	C95.644890,196.189957 92.902237,202.101166 89.672592,207.638306 
z"/>
<path fill="#F4626F" opacity="1.000000" stroke="none" 
	d="
M424.091553,272.083313 
	C426.383942,268.334747 428.402740,264.828033 431.285828,259.819977 
	C444.659027,261.547119 459.527985,263.467438 474.917297,265.454956 
	C474.165649,266.823517 474.035187,267.465393 473.723663,267.570496 
	C455.024048,273.878052 436.459839,280.663971 417.512238,286.116821 
	C411.147369,287.948456 403.800049,286.477875 396.909180,286.270233 
	C395.623627,286.231506 394.373444,285.018677 392.013123,283.768188 
	C403.852142,281.020721 415.001740,279.730286 424.091553,272.083313 
z"/>
<path fill="#F96471" opacity="1.000000" stroke="none" 
	d="
M89.980698,207.803909 
	C92.902237,202.101166 95.644890,196.189957 99.518219,191.147247 
	C102.526184,187.231186 106.945038,184.398849 111.074249,180.917953 
	C117.606262,190.067596 123.800804,199.384094 130.228943,209.051941 
	C122.840340,213.322220 114.039734,214.199036 104.991325,212.390945 
	C99.995461,211.392670 95.183609,209.473526 89.980698,207.803909 
z"/>
<path fill="#F9DF70" opacity="1.000000" stroke="none" 
	d="
M205.269348,152.208740 
	C207.838577,150.991333 210.290253,149.134933 212.542160,149.351883 
	C220.606003,150.128784 227.674118,153.776398 235.114120,158.565384 
	C225.188263,167.243591 215.715073,175.526047 206.267105,183.786438 
	C198.042969,175.077362 197.108948,167.873871 202.384964,157.305588 
	C203.200241,155.672531 204.164688,154.113922 205.269348,152.208740 
z"/>
<path fill="#0E6D8A" opacity="1.000000" stroke="none" 
	d="
M83.740601,222.006012 
	C83.427193,224.493210 82.780258,226.805969 82.088913,229.476074 
	C70.559883,226.714401 59.075264,223.595337 47.547180,220.464478 
	C47.603474,219.761353 47.554482,219.257675 47.692741,218.812088 
	C50.138416,210.930176 50.152897,210.902344 57.916214,213.428986 
	C66.423599,216.197800 74.910980,219.028076 83.740601,222.006012 
z"/>
<path fill="#000000" opacity="1.000000" stroke="none" 
	d="
M252.866882,185.652145 
	C253.916306,190.382965 252.477844,193.580215 248.339722,195.339584 
	C244.950699,196.780472 242.124847,195.640793 239.924637,192.958786 
	C237.253464,189.702713 237.961639,184.802811 241.302353,182.356689 
	C245.002396,179.647491 249.343597,180.748413 252.866882,185.652145 
z"/>
</svg>